<?xml version="1.0" encoding="UTF-8" standalone="no"?>
<!-- Generator: Adobe Illustrator 10.0.3, SVG Export Plug-In . SVG Version: 3.0.0 Build 77)  -->

<svg
   xmlns:a="http://ns.adobe.com/AdobeSVGViewerExtensions/3.0/"
   xmlns:dc="http://purl.org/dc/elements/1.1/"
   xmlns:cc="http://creativecommons.org/ns#"
   xmlns:rdf="http://www.w3.org/1999/02/22-rdf-syntax-ns#"
   xmlns:svg="http://www.w3.org/2000/svg"
   xmlns="http://www.w3.org/2000/svg"
   xmlns:xlink="http://www.w3.org/1999/xlink"
   xmlns:sodipodi="http://sodipodi.sourceforge.net/DTD/sodipodi-0.dtd"
   xmlns:inkscape="http://www.inkscape.org/namespaces/inkscape"
   width="440"
   height="280"
   viewBox="0 0 440 280"
   overflow="visible"
   enable-background="new 0 0 128 128"
   xml:space="preserve"
   id="svg3006"
   version="1.1"
   inkscape:version="0.47 r22583"
   sodipodi:docname="Computer_mouse.svg"
   inkscape:export-filename="/Users/regis/workspace/regis/chrome-extensions/allowrightclick_promo/promo_440_280.png"
   inkscape:export-xdpi="90"
   inkscape:export-ydpi="90"
   style="overflow:visible"><metadata
   id="metadata3107"><rdf:RDF><cc:Work
       rdf:about=""><dc:format>image/svg+xml</dc:format><dc:type
         rdf:resource="http://purl.org/dc/dcmitype/StillImage" /><dc:title></dc:title></cc:Work></rdf:RDF></metadata><defs
   id="defs3105"><linearGradient
   y2="26.744101"
   x2="64.000504"
   y1="137.8799"
   x1="64.000504"
   gradientUnits="userSpaceOnUse"
   id="linearGradient4047">
				<stop
   offset="0"
   style="stop-color:#adffa9;stop-opacity:1;"
   id="stop4053" />
				<stop
   id="stop4051"
   style="stop-color:#00c400;stop-opacity:0.54929578;"
   offset="1" />
				
				
				
			</linearGradient><linearGradient
   id="linearGradient4029"><stop
     style="stop-color:#2bff6e;stop-opacity:1;"
     offset="0"
     id="stop4031" /><stop
     style="stop-color:#ffffff;stop-opacity:0;"
     offset="1"
     id="stop4033" /></linearGradient><inkscape:perspective
   sodipodi:type="inkscape:persp3d"
   inkscape:vp_x="0 : 64 : 1"
   inkscape:vp_y="0 : 1000 : 0"
   inkscape:vp_z="128 : 64 : 1"
   inkscape:persp3d-origin="64 : 42.666667 : 1"
   id="perspective3109" />
		
		
	
			<linearGradient
   id="XMLID_1_"
   gradientUnits="userSpaceOnUse"
   x1="43.756802"
   y1="21.3638"
   x2="40.092098"
   y2="11.6785">
				<stop
   offset="0"
   style="stop-color:#9E9E9E"
   id="stop3012" />
				<stop
   offset="1"
   style="stop-color:#616161"
   id="stop3014" />
				
				
				
			</linearGradient>
			
			<linearGradient
   id="XMLID_2_"
   gradientUnits="userSpaceOnUse"
   x1="46.0103"
   y1="51.328098"
   x2="79.531403"
   y2="99.660599">
				<stop
   offset="0.3427"
   style="stop-color:#FFFFFF"
   id="stop3019" />
				<stop
   offset="1"
   style="stop-color:#B3B3B3"
   id="stop3021" />
				
				
				
			</linearGradient>
			
			<linearGradient
   id="XMLID_3_"
   gradientUnits="userSpaceOnUse"
   x1="60.839802"
   y1="62.687"
   x2="99.156403"
   y2="102.873">
				<stop
   offset="0.0169"
   style="stop-color:#FFFFFF"
   id="stop3026" />
				<stop
   offset="1"
   style="stop-color:#B3B3B3"
   id="stop3028" />
				
				
				
			</linearGradient>
			
			<linearGradient
   id="XMLID_4_"
   gradientUnits="userSpaceOnUse"
   x1="32.608398"
   y1="14.0947"
   x2="79.471802"
   y2="60.957802">
				<stop
   offset="0.0337"
   style="stop-color:#FFFFFF"
   id="stop3033" />
				<stop
   offset="1"
   style="stop-color:#B3B3B3"
   id="stop3035" />
				
				
				
			</linearGradient>
			
			
				<linearGradient
   id="XMLID_5_"
   gradientUnits="userSpaceOnUse"
   x1="-468.2529"
   y1="65.028297"
   x2="-468.2529"
   y2="48.1833"
   gradientTransform="matrix(0.8882,-0.4595,0.4595,0.8882,435.5004,-243.0717)">
				<stop
   offset="0"
   style="stop-color:#9E9E9E"
   id="stop3040" />
				<stop
   offset="1"
   style="stop-color:#616161"
   id="stop3042" />
				
				
				
			</linearGradient>
			
			
			<linearGradient
   id="XMLID_6_"
   gradientUnits="userSpaceOnUse"
   x1="64.000504"
   y1="137.8799"
   x2="64.000504"
   y2="26.744101">
				<stop
   offset="0"
   style="stop-color:#9E9E9E"
   id="stop3049" />
				<stop
   offset="1"
   style="stop-color:#616161"
   id="stop3051" />
				
				
				
			</linearGradient>
			
			
			<linearGradient
   id="XMLID_12_"
   gradientUnits="userSpaceOnUse"
   x1="71.125999"
   y1="80.475601"
   x2="84.982597"
   y2="102.0658">
				<stop
   offset="0"
   style="stop-color:#FFFFFF"
   id="stop3095" />
				<stop
   offset="1"
   style="stop-color:#FFFFFF;stop-opacity:0"
   id="stop3097" />
				
				
				
			</linearGradient>
			
		<linearGradient
   inkscape:collect="always"
   xlink:href="#XMLID_12_"
   id="linearGradient3210"
   gradientUnits="userSpaceOnUse"
   x1="71.125999"
   y1="80.475601"
   x2="84.982597"
   y2="102.0658"
   gradientTransform="translate(0,152)" /><linearGradient
   inkscape:collect="always"
   xlink:href="#XMLID_6_"
   id="linearGradient3235"
   gradientUnits="userSpaceOnUse"
   x1="64.000504"
   y1="137.8799"
   x2="64.000504"
   y2="26.744101"
   gradientTransform="translate(0,152)" /><linearGradient
   inkscape:collect="always"
   xlink:href="#XMLID_5_"
   id="linearGradient3239"
   gradientUnits="userSpaceOnUse"
   gradientTransform="matrix(0.8882,-0.4595,0.4595,0.8882,435.5004,-91.0717)"
   x1="-468.2529"
   y1="65.028297"
   x2="-468.2529"
   y2="48.1833" /><linearGradient
   inkscape:collect="always"
   xlink:href="#XMLID_4_"
   id="linearGradient3242"
   gradientUnits="userSpaceOnUse"
   x1="32.608398"
   y1="14.0947"
   x2="79.471802"
   y2="60.957802"
   gradientTransform="translate(0,152)" /><linearGradient
   inkscape:collect="always"
   xlink:href="#XMLID_3_"
   id="linearGradient3245"
   gradientUnits="userSpaceOnUse"
   x1="60.839802"
   y1="62.687"
   x2="99.156403"
   y2="102.873"
   gradientTransform="translate(0,152)" /><linearGradient
   inkscape:collect="always"
   xlink:href="#XMLID_2_"
   id="linearGradient3248"
   gradientUnits="userSpaceOnUse"
   x1="46.0103"
   y1="51.328098"
   x2="79.531403"
   y2="99.660599"
   gradientTransform="translate(0,152)" /><linearGradient
   inkscape:collect="always"
   xlink:href="#XMLID_1_"
   id="linearGradient3251"
   gradientUnits="userSpaceOnUse"
   x1="43.756802"
   y1="21.3638"
   x2="40.092098"
   y2="11.6785"
   gradientTransform="translate(0,152)" /><linearGradient
   inkscape:collect="always"
   xlink:href="#linearGradient4047"
   id="linearGradient4045"
   x1="54.237289"
   y1="17.084745"
   x2="75.932205"
   y2="49.627117"
   gradientUnits="userSpaceOnUse"
   gradientTransform="translate(0,152)" /><linearGradient
   inkscape:collect="always"
   xlink:href="#XMLID_7_"
   id="linearGradient4059"
   gradientUnits="userSpaceOnUse"
   gradientTransform="matrix(0.7497,-0.3145,0.4116,0.9811,352.5457,-86.8152)"
   x1="-406.603"
   y1="1.8354"
   x2="-390.646"
   y2="1.8354" /><radialGradient
   inkscape:collect="always"
   xlink:href="#XMLID_8_"
   id="radialGradient4061"
   gradientUnits="userSpaceOnUse"
   gradientTransform="matrix(0.3283,-0.1377,0.3239,0.7722,124.323,-231.0291)"
   cx="-476.05029"
   cy="293.56451"
   fx="-476.05029"
   fy="293.56451"
   r="38.103802" /><radialGradient
   inkscape:collect="always"
   xlink:href="#XMLID_9_"
   id="radialGradient4063"
   gradientUnits="userSpaceOnUse"
   gradientTransform="matrix(0.3283,-0.1377,0.3239,0.7722,124.323,-231.0291)"
   cx="-475.1709"
   cy="285.72659"
   fx="-475.1709"
   fy="285.72659"
   r="44.195999" /><linearGradient
   inkscape:collect="always"
   xlink:href="#XMLID_10_"
   id="linearGradient4065"
   gradientUnits="userSpaceOnUse"
   gradientTransform="matrix(0.9877,0.1254,-0.1391,0.9774,-134.8168,29.0061)"
   x1="180.75101"
   y1="-12.7461"
   x2="198.9102"
   y2="-12.7461" /><linearGradient
   inkscape:collect="always"
   xlink:href="#XMLID_11_"
   id="linearGradient4067"
   gradientUnits="userSpaceOnUse"
   gradientTransform="matrix(0.7497,-0.3145,0.4116,0.9811,352.5457,-86.8152)"
   x1="-398.98679"
   y1="-10.7988"
   x2="-398.98679"
   y2="3.0255001" /><linearGradient
   inkscape:collect="always"
   xlink:href="#linearGradient4047"
   id="linearGradient4121"
   x1="324.09302"
   y1="145.55231"
   x2="374.1138"
   y2="238.51846"
   gradientUnits="userSpaceOnUse"
   gradientTransform="translate(5.2104985,10.555612)" /><linearGradient
   inkscape:collect="always"
   xlink:href="#XMLID_8_"
   id="linearGradient4131"
   x1="229"
   y1="6"
   x2="377"
   y2="493"
   gradientUnits="userSpaceOnUse" /></defs><sodipodi:namedview
   pagecolor="#ffffff"
   bordercolor="#666666"
   borderopacity="1"
   objecttolerance="10"
   gridtolerance="10"
   guidetolerance="10"
   inkscape:pageopacity="0"
   inkscape:pageshadow="2"
   inkscape:window-width="1081"
   inkscape:window-height="796"
   id="namedview3103"
   showgrid="false"
   inkscape:zoom="1"
   inkscape:cx="176.63473"
   inkscape:cy="64"
   inkscape:window-x="127"
   inkscape:window-y="119"
   inkscape:window-maximized="0"
   inkscape:current-layer="svg3006" />
	<rect
   style="fill:url(#linearGradient4131);fill-opacity:1;stroke:none"
   id="rect4123"
   width="435"
   height="274"
   x="3"
   y="4" /><text
   xml:space="preserve"
   style="font-size:258.59848022px;font-style:normal;font-variant:normal;font-weight:normal;font-stretch:normal;fill:url(#linearGradient4121);fill-opacity:1;stroke:none;font-family:Dingbats;-inkscape-font-specification:Dingbats"
   x="270.86554"
   y="245.45369"
   id="text4111"
   transform="scale(0.95960109,1.0420997)"><tspan
     sodipodi:role="line"
     id="tspan4113"
     x="270.86554"
     y="245.45369"
     style="fill:url(#linearGradient4121);fill-opacity:1">✓</tspan></text>
<g
   id="g4069"
   transform="matrix(2.1875,0,0,2.1875,0,-332.5)"><path
     style="fill:url(#linearGradient3251)"
     id="path3016"
     d="m 48.832,174.706 -7.241,0.143 -9.832,-21.122 7.241,-0.143 9.832,21.122 z" /><path
     style="fill:url(#linearGradient3248)"
     id="path3023"
     d="m 71.392,166.326 c -16.33,-9.111 -53.955,2.89 -56.843,11.561 -2.892,8.671 -13.768,115.145 65.516,97.307 77.073,-17.341 7.66,-99.755 -8.673,-108.868 z" /><path
     style="fill:url(#linearGradient3245)"
     id="path3030"
     d="M 71.525,166.522 C 57.044,158.776 23.692,168.98 21.13,176.352 18.568,183.72 8.928,274.221 79.208,259.064 147.536,244.32 86,174.267 71.525,166.522 z" /><path
     style="fill:url(#linearGradient3242)"
     id="path3037"
     d="m 60.987,206.27 c 19.198,-4.141 24.883,-14.035 23.885,-25.154 -6.61,-7.676 -13.005,-13.341 -16.562,-15.243 -14.478,-7.746 -47.828,2.458 -50.391,9.829 -0.159,0.457 -0.349,1.242 -0.54,2.305 3.965,17.742 15.165,34.401 43.608,28.263 z" /><path
     sodipodi:nodetypes="ccccc"
     d="M 60.987,206.27 C 80.185,202.129 85.87,192.235 84.872,181.116 78.262,173.44 71.867,167.775 68.31,165.873 51.903509,159.51298 36.499637,168.6377 41.78578,165.53242 51.716881,182.18968 60.205017,206.98427 60.987,206.27 z"
     id="path3253"
     style="fill:url(#linearGradient4045);fill-opacity:1" /><path
     style="fill:url(#linearGradient3239)"
     id="path3044"
     d="m 49.174,180.05 -0.988,0.51 -8.104,-15.669 0.985,-0.51 8.107,15.669 z" /><path
     style="fill:#ffffff"
     id="path3046"
     d="m 50.298,180.05 -0.988,0.51 -8.104,-15.669 0.988,-0.51 8.104,15.669 z" /><path
     style="fill:url(#linearGradient3235)"
     id="path3053"
     d="m 27.826,167.339 c -3.818,1.481 -12.865,5.436 -14.44,10.163 -1.427,4.278 -9.03,59.207 15.756,86.615 11.862,13.117 29.084,17.245 51.19,12.274 21.769,-4.9 33.962,-15.345 36.234,-31.036 4.62,-31.905 -33.818,-74.095 -44.578,-80.1 -10.931,-6.098 -30.556,-3.195 -44.162,2.084 z m 3.134,95.136 C 8.432,237.564 13.372,185.29 15.707,178.277 c 0.854,-2.557 5.836,-5.873 13.002,-8.653 13.507,-5.24 32.299,-7.689 42.086,-2.228 5.7,3.182 17.832,15.519 27.488,29.903 12.077,17.985 17.709,34.926 15.858,47.704 -2.111,14.587 -13.667,24.342 -34.351,28.996 -21.176,4.764 -37.605,0.892 -48.83,-11.524 z" /><g
     transform="translate(0,152)"
     id="g3055">
				<g
   id="g3057">
					
						<linearGradient
   gradientTransform="matrix(0.7497,-0.3145,0.4116,0.9811,352.5457,-86.8152)"
   y2="1.8354"
   x2="-390.646"
   y1="1.8354"
   x1="-406.603"
   gradientUnits="userSpaceOnUse"
   id="XMLID_7_">
						<stop
   id="stop3060"
   style="stop-color:#FFFFFF;stop-opacity:0"
   offset="0" />
						<stop
   id="stop3062"
   style="stop-color:#0D2D7D"
   offset="1" />
						
						
						
					</linearGradient>
					<path
   style="fill:url(#linearGradient4059)"
   id="path3064"
   d="m 48.552,26.288 c -3.298,1.382 -3.334,8.818 -0.082,16.573 3.253,7.756 8.584,12.941 11.88,11.557 3.301,-1.384 3.337,-8.819 0.083,-16.576 C 57.18,30.089 51.85,24.902 48.552,26.288 z M 60.083,53.779 C 56.93,55.103 51.854,50.163 48.742,42.747 45.634,35.332 45.666,28.249 48.819,26.926 c 3.152,-1.322 8.231,3.616 11.341,11.032 3.111,7.417 3.077,14.5 -0.077,15.821 z" />
					
						<radialGradient
   gradientUnits="userSpaceOnUse"
   gradientTransform="matrix(0.3283,-0.1377,0.3239,0.7722,124.323,-231.0291)"
   fy="293.56451"
   fx="-476.05029"
   r="38.103802"
   cy="293.56451"
   cx="-476.05029"
   id="XMLID_8_">
						<stop
   id="stop3067"
   style="stop-color:#B8D9FF"
   offset="0" />
						<stop
   id="stop3069"
   style="stop-color:#0D2DBB"
   offset="1" />
						
						
						
					</radialGradient>
					<path
   style="fill:url(#radialGradient4061)"
   id="path3071"
   d="m 49.087,27.565 c -2.998,1.259 -3.03,8.019 -0.073,15.067 2.958,7.053 7.804,11.764 10.803,10.508 2.996,-1.259 3.03,-8.016 0.072,-15.068 C 56.931,31.021 52.085,26.308 49.087,27.565 z" />
					
						<radialGradient
   gradientUnits="userSpaceOnUse"
   gradientTransform="matrix(0.3283,-0.1377,0.3239,0.7722,124.323,-231.0291)"
   fy="285.72659"
   fx="-475.1709"
   r="44.195999"
   cy="285.72659"
   cx="-475.1709"
   id="XMLID_9_">
						<stop
   id="stop3074"
   style="stop-color:#2D58A4"
   offset="0" />
						<stop
   id="stop3076"
   style="stop-color:#0D2D60"
   offset="1" />
						
						
						
					</radialGradient>
					<path
   style="fill:url(#radialGradient4063)"
   id="path3078"
   d="m 48.819,26.926 c -3.153,1.323 -3.186,8.406 -0.077,15.821 3.111,7.416 8.188,12.356 11.341,11.032 3.154,-1.321 3.188,-8.403 0.077,-15.821 C 57.051,30.542 51.972,25.604 48.819,26.926 z M 59.816,53.14 c -2.999,1.256 -7.845,-3.455 -10.803,-10.508 -2.957,-7.048 -2.925,-13.808 0.073,-15.067 2.998,-1.257 7.844,3.456 10.802,10.506 2.959,7.054 2.924,13.81 -0.072,15.069 z" />
					
						<linearGradient
   gradientTransform="matrix(0.9877,0.1254,-0.1391,0.9774,-134.8168,29.0061)"
   y2="-12.7461"
   x2="198.9102"
   y1="-12.7461"
   x1="180.75101"
   gradientUnits="userSpaceOnUse"
   id="XMLID_10_">
						<stop
   id="stop3081"
   style="stop-color:#FFFFFF;stop-opacity:0"
   offset="0" />
						<stop
   id="stop3083"
   style="stop-color:#0D2D7D"
   offset="1" />
						
						
						
					</linearGradient>
					<path
   style="fill:url(#linearGradient4065)"
   id="path3085"
   d="m 48.819,26.926 c -3.153,1.323 -3.186,8.406 -0.077,15.821 3.111,7.416 8.188,12.356 11.341,11.032 3.154,-1.321 3.188,-8.403 0.077,-15.821 C 57.051,30.542 51.972,25.604 48.819,26.926 z M 59.816,53.14 c -2.999,1.256 -7.845,-3.455 -10.803,-10.508 -2.957,-7.048 -2.925,-13.808 0.073,-15.067 2.998,-1.257 7.844,3.456 10.802,10.506 2.959,7.054 2.924,13.81 -0.072,15.069 z" />
				</g>
				
					<linearGradient
   gradientTransform="matrix(0.7497,-0.3145,0.4116,0.9811,352.5457,-86.8152)"
   y2="3.0255001"
   x2="-398.98679"
   y1="-10.7988"
   x1="-398.98679"
   gradientUnits="userSpaceOnUse"
   id="XMLID_11_">
					<stop
   id="stop3088"
   style="stop-color:#FFFFFF"
   offset="0" />
					<stop
   id="stop3090"
   style="stop-color:#FFFFFF;stop-opacity:0"
   offset="1" />
					
					
					
				</linearGradient>
				<path
   style="fill:url(#linearGradient4067)"
   id="path3092"
   d="m 54.56,40.817 c 0.559,-4.724 2.045,-6.872 2.763,-7.655 -2.797,-4.266 -6.084,-6.681 -8.335,-5.737 -3.044,1.277 -3.034,8.224 0.022,15.513 0.482,1.145 1.008,2.229 1.567,3.24 1.059,0.02 3.41,-0.498 3.983,-5.361 z"
   a:adobe-blending-mode="screen" />
			</g><path
     style="fill:url(#linearGradient3210)"
     id="path3099"
     d="m 101.899,209.636 c 0.235,1.634 -4.355,-6.656 -6.076,-7.086 -24.658,-6.153 -7.081,28.476 -26.356,39.657 -19.647,11.396 -32.328,4.603 -39.824,-3.887 5.458,13.411 20.277,23.032 37.716,23.032 22.071,0 39.961,-15.408 39.961,-34.416 -10e-4,-6.309 -1.981,-12.214 -5.421,-17.3 z"
     a:adobe-blending-mode="screen" /><path
     d="M 128,280 H 0 V 152 h 128 v 128 z"
     id="path3101"
     style="fill:none" /></g>
<text
   xml:space="preserve"
   style="font-size:40px;font-style:normal;font-variant:normal;font-weight:bold;font-stretch:normal;text-align:end;text-anchor:end;fill:#616161;fill-opacity:1;stroke:none;font-family:Arial Rounded MT Bold;-inkscape-font-specification:'Arial Rounded MT Bold, Bold'"
   x="345"
   y="50"
   id="text4103"><tspan
     sodipodi:role="line"
     id="tspan4105"
     x="345"
     y="50">allow</tspan><tspan
     sodipodi:role="line"
     x="345"
     y="100"
     id="tspan4107">right</tspan><tspan
     sodipodi:role="line"
     x="345"
     y="150"
     id="tspan4109">click</tspan></text>
</svg>